<svg width="20" height="20" viewBox="0 0 20 20" fill="none" xmlns="http://www.w3.org/2000/svg">
<g clip-path="url(#clip0_2_283)">
<path d="M19.995 19.9999V19.9991H20V12.6641C20 9.07575 19.2275 6.31158 15.0325 6.31158C13.0158 6.31158 11.6625 7.41825 11.11 8.46742H11.0517V6.64658H7.07416V19.9991H11.2158V13.3874C11.2158 11.6466 11.5458 9.96325 13.7017 9.96325C15.8258 9.96325 15.8575 11.9499 15.8575 13.4991V19.9999H19.995Z" fill="#FCFCFC"/>
<path d="M0.330139 6.64777H4.47681V20.0003H0.330139V6.64777Z" fill="#FCFCFC"/>
<path d="M2.40167 0C1.07583 0 0 1.07583 0 2.40167C0 3.7275 1.07583 4.82583 2.40167 4.82583C3.7275 4.82583 4.80333 3.7275 4.80333 2.40167C4.8025 1.07583 3.72667 0 2.40167 0V0Z" fill="#FCFCFC"/>
</g>
<defs>
<clipPath id="clip0_2_283">
<rect width="20" height="20" fill="#FCFCFC"/>
</clipPath>
</defs>
</svg>
