<svg width="43" height="17" viewBox="0 0 43 17" fill="none" xmlns="http://www.w3.org/2000/svg">
<path d="M13.992 13.474C14.3147 13.474 14.5713 13.5547 14.762 13.716C14.9527 13.8773 15.048 14.1267 15.048 14.464V15.432C15.048 15.7693 14.9527 16.0187 14.762 16.18C14.5713 16.3267 14.3147 16.4 13.992 16.4H9.72399C9.40129 16.4 9.14467 16.3267 8.954 16.18C8.76334 16.0187 8.668 15.7693 8.668 15.432V14.464C8.668 14.1267 8.76334 13.8773 8.954 13.716C9.14467 13.5547 9.40129 13.474 9.72399 13.474H10.054L9.43799 11.67H5.016L4.4 13.474H4.752C5.06 13.474 5.30934 13.5547 5.5 13.716C5.69067 13.8773 5.786 14.1267 5.786 14.464V15.432C5.786 15.7693 5.69067 16.0187 5.5 16.18C5.30934 16.3267 5.06 16.4 4.752 16.4H1.056C0.747998 16.4 0.491338 16.3267 0.286 16.18C0.095333 16.0187 0 15.7693 0 15.432V14.464C0 14.1267 0.095333 13.8773 0.286 13.716C0.491338 13.5547 0.747998 13.474 1.056 13.474H1.386L5.588 1.77001C5.66134 1.53534 5.79334 1.352 5.984 1.22C6.18934 1.07333 6.41667 1 6.666 1H8.382C8.63134 1 8.85134 1.07333 9.042 1.22C9.24734 1.352 9.38669 1.53534 9.45999 1.77001L13.662 13.474H13.992ZM8.426 8.74401L7.238 5.224L6.028 8.74401H8.426Z" fill="white"/>
<path d="M29.627 13.074C29.9497 13.074 30.2063 13.1547 30.397 13.316C30.5877 13.4773 30.683 13.7267 30.683 14.064V15.032C30.683 15.3693 30.5877 15.6187 30.397 15.78C30.2063 15.9267 29.9497 16 29.627 16H26.855C26.679 16 26.5103 15.956 26.349 15.868C26.2023 15.78 26.085 15.6553 25.997 15.494L23.973 11.776C23.709 11.292 23.4817 10.9327 23.291 10.698C23.1003 10.4633 22.895 10.302 22.675 10.214C22.455 10.126 22.1617 10.082 21.795 10.082H21.399V13.074H21.729C22.037 13.074 22.2863 13.1547 22.477 13.316C22.6677 13.4773 22.763 13.7267 22.763 14.064V15.032C22.763 15.3693 22.6677 15.6187 22.477 15.78C22.2863 15.9267 22.037 16 21.729 16H17.549C17.2263 16 16.9697 15.9267 16.779 15.78C16.5883 15.6187 16.493 15.3693 16.493 15.032V14.064C16.493 13.7267 16.5883 13.4773 16.779 13.316C16.9697 13.1547 17.2263 13.074 17.549 13.074H17.879V3.52598H17.549C17.2263 3.52598 16.9697 3.44531 16.779 3.28398C16.5883 3.12264 16.493 2.87331 16.493 2.53597V1.56798C16.493 1.23064 16.5883 0.988643 16.779 0.841976C16.9697 0.680643 17.2263 0.599976 17.549 0.599976H23.093C24.9703 0.599976 26.393 0.988643 27.361 1.76598C28.329 2.52864 28.813 3.65064 28.813 5.13198C28.813 6.09997 28.5563 6.92864 28.043 7.61798C27.5443 8.30731 26.833 8.81331 25.909 9.13598C26.173 9.23864 26.415 9.41464 26.635 9.66398C26.8697 9.91331 27.1043 10.258 27.339 10.698L28.615 13.074H29.627ZM22.719 7.17798C23.599 7.17798 24.2297 7.02398 24.611 6.71598C25.007 6.39331 25.205 5.88731 25.205 5.19798C25.205 4.64064 25.0143 4.22264 24.633 3.94398C24.2663 3.66531 23.7017 3.52598 22.939 3.52598H21.399V7.17798H22.719Z" fill="white"/>
<path d="M37.7199 7.19401C38.9079 7.57534 39.8393 7.97134 40.514 8.382C41.1886 8.778 41.6726 9.24 41.966 9.76799C42.274 10.296 42.428 10.9413 42.428 11.704C42.428 12.4813 42.2079 13.1853 41.7679 13.816C41.3426 14.4467 40.7413 14.9453 39.964 15.312C39.2013 15.664 38.336 15.84 37.368 15.84C36.2973 15.84 35.3513 15.6787 34.5299 15.356C33.7233 15.0333 33.1 14.5787 32.66 13.992C32.22 13.4053 32 12.7233 32 11.946C32 11.55 32.088 11.242 32.264 11.022C32.4546 10.802 32.7186 10.692 33.056 10.692C33.32 10.692 33.54 10.7873 33.716 10.978C33.892 11.154 33.98 11.374 33.98 11.638C33.98 11.858 33.9213 12.056 33.804 12.232C33.6866 12.3933 33.5326 12.5033 33.3419 12.562C33.4886 13.2073 33.914 13.7133 34.618 14.08C35.3366 14.4467 36.2533 14.63 37.368 14.63C38.4826 14.63 39.3846 14.366 40.0739 13.838C40.7633 13.2953 41.1079 12.606 41.1079 11.77C41.1079 11.1393 41.0053 10.648 40.7999 10.296C40.5946 9.92929 40.2206 9.60666 39.678 9.328C39.1353 9.03467 38.2846 8.70467 37.126 8.33801C35.9233 7.95667 34.9773 7.56801 34.2879 7.17201C33.6133 6.76134 33.1293 6.29934 32.8359 5.78601C32.5426 5.25801 32.396 4.62001 32.396 3.87199C32.396 3.13866 32.616 2.47867 33.056 1.89201C33.496 1.29067 34.1046 0.828665 34.882 0.506C35.674 0.168667 36.5613 0 37.5439 0C38.9959 0 40.1106 0.300667 40.888 0.902005C41.68 1.50333 42.076 2.36134 42.076 3.476C42.076 3.87199 41.9806 4.18 41.79 4.4C41.614 4.62 41.3573 4.73 41.02 4.73C40.756 4.73 40.536 4.642 40.36 4.466C40.184 4.27534 40.096 4.048 40.096 3.784C40.096 3.57867 40.1473 3.39533 40.25 3.234C40.3673 3.058 40.5139 2.93333 40.6899 2.85999C40.4259 1.75999 39.3406 1.21001 37.4339 1.21001C36.3193 1.21001 35.4173 1.45934 34.728 1.958C34.0533 2.45667 33.716 3.10934 33.716 3.91601C33.716 4.47334 33.8259 4.92801 34.0459 5.28C34.2659 5.632 34.6546 5.95466 35.2119 6.248C35.7839 6.52666 36.6199 6.842 37.7199 7.19401Z" fill="white"/>
</svg>
